PathFileType	4	(X/Y/Z)	c:/Users/goper/Files/vsCode/490R/osim_files/C08/C08_SSWS_06.trc
DataRate	CameraRate	NumFrames	NumMarkers	Units                	OrigDataRate	OrigDataStartFrame	OrigNumFrames
250.00	250.00	6	36	mm	250.0	2061	2747
                Frame#	Time	LPSIS			LASIS			LTH1			LTH2			LTH3			LTH4			LLFE			LMFE			LSH1			LSH2			LSH3			LSH4			LLMAL			LMMAL			LCAL			LMTP5			LTOE			LMTP1			RPSIS			RASIS			RTH1			RTH2			RTH3			RTH4			RLFE			RMFE			RSH1			RSH2			RSH3			RSH4			RLMAL			RMMAL			RCAL			RMTP1			RTOE			RMTP5		
		X1	Y1	Z1	X2	Y2	Z2	X3	Y3	Z3	X4	Y4	Z4	X5	Y5	Z5	X6	Y6	Z6	X7	Y7	Z7	X8	Y8	Z8	X9	Y9	Z9	X10	Y10	Z10	X11	Y11	Z11	X12	Y12	Z12	X13	Y13	Z13	X14	Y14	Z14	X15	Y15	Z15	X16	Y16	Z16	X17	Y17	Z17	X18	Y18	Z18	X19	Y19	Z19	X20	Y20	Z20	X21	Y21	Z21	X22	Y22	Z22	X23	Y23	Z23	X24	Y24	Z24	X25	Y25	Z25	X26	Y26	Z26	X27	Y27	Z27	X28	Y28	Z28	X29	Y29	Z29	X30	Y30	Z30	X31	Y31	Z31	X32	Y32	Z32	X33	Y33	Z33	X34	Y34	Z34	X35	Y35	Z35	X36	Y36	Z36

2061	8.24000	-3292.67065	1057.53259	189.59570	-3508.87646	1025.38977	269.52795	-3507.45874	754.07257	352.37430	-3538.25439	681.42517	343.85956	-3566.52637	612.81451	335.00571	-3611.81909	717.98328	326.56119	-3580.92480	567.53937	327.66629	-3605.47900	561.13464	200.66019	-3500.56616	480.63391	332.49765	0.00000	0.00000	0.00000	-3554.59668	457.01440	337.74426	-3538.02661	417.58664	339.40829	-3390.77441	176.35965	285.39011	-3429.11914	170.48856	205.56702	-3332.81738	176.31842	225.02541	-3470.24780	73.77977	326.57169	-3541.55542	74.43038	277.58246	-3509.19775	62.71690	223.22285	-3292.75903	1057.20789	129.40463	-3493.75439	1023.20776	34.45163	0.00000	0.00000	0.00000	-3416.43530	679.34143	3.40978	-3409.17358	600.29578	18.07036	-3489.21045	680.79498	30.08446	-3409.12012	528.26160	34.62252	-3420.70850	530.03870	161.52634	-3349.68188	449.14655	20.34627	-3348.97363	403.65546	15.93048	-3412.00146	444.98309	26.47966	-3404.57300	399.96228	23.88498	-3327.04688	97.08042	86.59783	-3363.79663	109.32986	169.78073	-3271.05298	83.48095	155.34372	-3491.16968	46.34544	157.79054	-3506.70850	63.57652	103.15646	-3452.57642	46.13129	43.90187
2062	8.24400	-3296.43530	1057.37573	189.86430	-3512.69702	1025.11877	269.41068	-3512.20386	754.37427	352.10281	-3543.27856	681.76337	343.26810	-3572.66943	613.59247	333.40445	-3616.63818	718.53064	325.37805	-3586.26758	568.00317	326.71149	-3609.81860	561.41534	199.66652	-3506.86084	479.29208	331.95453	0.00000	0.00000	0.00000	-3561.28564	456.80923	337.01926	-3545.60352	416.94995	338.80829	-3402.39697	172.61986	285.05569	-3441.74683	167.22504	205.57079	-3344.33252	171.26418	224.28574	-3484.93506	71.87778	326.80380	-3556.31323	73.90984	277.88568	-3524.25757	61.38642	223.50995	-3296.36523	1057.04565	129.66072	-3497.06006	1022.84979	34.08945	0.00000	0.00000	0.00000	-3418.66650	679.28552	3.43226	-3411.02661	600.23425	18.11263	-3491.40527	680.44110	30.02366	-3410.59619	528.13898	34.67968	-3422.36523	529.95728	161.51237	-3350.83472	449.28427	20.49903	-3350.21143	403.59341	16.14692	-3413.06567	444.91220	26.60357	-3405.57886	399.89801	23.96761	-3327.14136	97.15390	86.65598	-3363.22095	109.45881	169.32460	-3271.01318	83.64213	155.40576	-3491.16162	46.22675	157.77597	-3506.78442	63.49757	103.13456	-3452.54980	46.08142	43.90181
2063	8.24800	-3301.10352	1056.89746	191.11650	-3516.51489	1024.75903	269.27325	-3517.07251	754.56311	351.83597	-3548.26953	682.05731	342.68451	-3578.78101	614.16583	335.18155	-3621.35474	718.99713	324.21329	-3591.40869	568.40784	325.69162	-3614.08496	561.61847	198.70309	-3513.02539	477.85571	331.39316	0.00000	0.00000	0.00000	-3567.76123	456.40710	336.33914	-3553.11768	416.27786	338.25235	-3415.03955	168.86426	284.98721	-3454.59131	164.03859	205.50986	-3358.15259	165.68515	224.82800	-3499.70093	70.05297	326.99005	-3571.18555	73.54688	278.17465	-3539.40112	60.13703	223.88283	-3299.88037	1056.87146	129.85385	-3500.39014	1022.47656	33.70826	0.00000	0.00000	0.00000	-3420.85254	679.19232	3.44665	-3412.94263	600.18176	18.17329	-3493.63550	680.10168	29.97829	-3412.16333	528.02979	34.70928	-3424.09668	529.86292	161.60246	-3352.10815	449.43274	20.63456	-3351.21631	403.72006	16.25744	-3414.19482	444.87823	26.72910	-3406.66846	399.87628	24.05073	-3327.08569	97.10666	86.84032	-3363.38525	109.49259	169.48349	-3271.04199	83.74989	155.48035	-3491.24634	46.20734	157.74159	-3506.82617	63.41135	103.13480	-3452.54663	46.07874	43.86615
2064	8.25200	-3303.72876	1056.99390	190.22375	-3520.31543	1024.36780	269.19571	-3522.85693	754.47070	352.77646	-3553.01562	682.20056	342.01831	-3583.73901	614.50616	334.25378	-3626.02075	719.40765	323.04752	-3596.51440	568.76160	324.71686	-3618.30176	561.73370	197.70703	-3519.22754	476.37369	330.95740	0.00000	0.00000	0.00000	-3574.31323	456.07391	335.68542	-3560.41821	415.53137	337.64658	-3428.54028	165.17073	285.08160	-3467.14282	160.73904	205.77277	-3370.02075	160.51801	225.02084	-3514.49658	68.29962	327.28192	-3585.96606	73.19330	278.51813	-3554.53149	58.91933	224.20338	-3303.47095	1056.74133	130.10899	-3503.73120	1022.08472	33.31076	-3425.87476	755.97491	-15.49059	-3423.10498	679.12317	3.46500	-3414.80786	600.08655	18.21038	-3495.86499	679.71436	29.93764	-3413.68604	527.92462	34.76442	-3425.81714	529.79675	161.64549	-3353.27612	449.55005	20.75901	-3352.31812	403.82056	16.35567	-3415.39209	444.86743	26.84560	-3407.76025	399.81958	24.12484	-3327.08130	97.03894	86.94839	-3363.53613	109.53430	169.60492	-3269.79810	84.19392	155.40654	-3491.30176	46.14284	157.72375	-3506.89185	63.31182	103.10684	-3452.54102	46.02922	43.84441
2065	8.25600	-3308.47363	1056.40625	191.52861	-3524.13184	1023.92859	269.15335	-3527.57666	754.57727	352.39890	-3557.75879	682.36517	341.37332	-3588.61279	614.79395	333.31543	-3630.55640	719.73364	321.87964	-3601.41040	568.99414	323.71188	-3622.35791	561.74152	196.75015	-3525.31665	474.78833	330.48688	0.00000	0.00000	0.00000	-3580.62646	455.55151	335.04291	-3567.81982	414.77994	337.10025	-3440.40601	161.50606	284.77756	-3481.52881	159.67558	205.02151	-3385.29224	154.70293	226.90346	-3529.18726	66.67538	327.49127	-3600.77783	72.94513	278.86920	-3569.77979	57.89803	224.54868	-3307.17017	1056.46375	130.38757	-3507.07178	1021.66608	32.96799	-3428.48291	755.91107	-15.53725	-3425.40771	679.03485	3.44535	-3416.81641	600.10266	18.20418	-3498.10913	679.36310	29.88213	-3415.28125	527.85608	34.80664	-3427.50879	529.68335	161.66646	-3354.64844	449.72202	20.87323	-3353.42310	403.94281	16.45392	-3416.54565	444.80817	26.96268	-3408.91431	399.76788	24.18322	-3327.23364	97.11788	86.99728	-3363.72900	109.60063	169.73878	-3271.07812	84.00873	155.63477	-3491.35620	46.06608	157.70930	-3506.93726	63.21771	103.10226	-3452.56079	46.01451	43.81885
2066	8.26000	-3311.16528	1056.44922	190.55698	-3527.95850	1023.48834	269.11185	-3532.09741	754.57214	351.95813	-3562.38672	682.46582	340.74057	-3593.28369	614.95581	332.35281	-3634.96582	719.97321	320.78705	-3606.14062	569.11713	322.69208	-3626.38037	561.69055	195.78267	-3531.40869	473.10083	330.07867	0.00000	0.00000	0.00000	-3586.92163	455.03781	334.40622	-3575.09521	413.92505	336.58560	-3453.21387	157.88744	284.68445	-3494.44165	156.51016	205.01782	-3396.08569	150.21919	224.76694	-3544.12549	65.19623	327.80011	-3615.57300	72.80924	279.19876	-3584.99756	56.88240	224.91954	-3311.57568	1055.95435	131.70361	-3510.46973	1021.27454	32.63412	-3431.02100	755.74451	-15.56927	-3427.63599	678.92511	3.43234	-3418.67505	599.93665	18.23327	-3500.39404	679.00043	29.84492	-3416.88745	527.74408	34.82946	-3429.23267	529.60498	161.71017	-3355.89185	449.80014	20.95606	-3354.60156	404.03140	16.58534	-3417.78369	444.74460	27.05832	-3410.01685	399.70813	24.27196	-3327.25562	97.09323	87.13486	-3363.92041	109.68025	169.87225	-3271.11328	84.13858	155.71552	-3491.45190	46.03122	157.66786	-3506.97339	63.09131	103.10445	-3452.57056	45.96640	43.79375
